<svg xmlns="http://www.w3.org/2000/svg" id="artboard-svg" width="14" height="10" viewBox="0 0 14 10" style="width:93.75px"><defs><style>.cls-1 { clip-path: url(#clip-iPhone_X_XS_1); } .cls-10, .cls-11, .cls-18, .cls-19, .cls-2, .cls-20, .cls-8, .cls-9 { fill: #0d47a1; } .cls-3, .cls-4, .cls-6 { fill: #eee; } .cls-10, .cls-18, .cls-19, .cls-3, .cls-6 { font-size: 13px; } .cls-11, .cls-14, .cls-19, .cls-3 { font-family: Helvetica-Bold, Helvetica; font-weight: 700; } .cls-15, .cls-5 { fill: none; } .cls-5 { stroke: #eee; stroke-linecap: round; stroke-linejoin: round; stroke-width: 2px; } .cls-18, .cls-20, .cls-6, .cls-8, .cls-9 { font-family: Helvetica; } .cls-7 { fill: #fafafa; } .cls-8 { font-size: 15px; } .cls-11, .cls-9 { font-size: 20px; } .cls-10, .cls-13, .cls-16 { font-family: Helvetica-Light, Helvetica; font-weight: 300; } .cls-12, .cls-13, .cls-16 { fill: #9e9e9e; } .cls-13, .cls-20 { font-size: 10px; } .cls-15 { stroke: #9e9e9e; } .cls-16 { font-size: 7px; } .cls-17 { fill: #1976d2; } .cls-21 { fill: #2196f3; } .cls-22 { fill: #fff; } .cls-23 { filter: url(#Rectangle_3); }</style><filter id="Rectangle_3" width="324" height="190" x="27" y="197" filterUnits="userSpaceOnUse"><feOffset dy="3"/><feGaussianBlur result="blur" stdDeviation="3"/><feFlood flood-opacity=".161"/><feComposite in2="blur" operator="in"/><feComposite in="SourceGraphic"/></filter><clipPath id="clip-iPhone_X_XS_1"><path d="M0 0h375v812H0z"/></clipPath></defs><g transform="translate(-181 -720)"><g id="iPhone_X_XS_1" class="cls-1" data-name="iPhone X/XS – 1"><g id="Group_39" data-name="Group 39" transform="translate(0 21)"><g id="Group_38" data-name="Group 38" transform="translate(0 -4)"><path id="Icon_awesome-angle-down" d="M4.468 16.978L.217 12.727a.747.747 0 0 1 0-1.06l.706-.706a.747.747 0 0 1 1.06 0L5 13.974l3.01-3.013a.747.747 0 0 1 1.06 0l.706.706a.747.747 0 0 1 0 1.06l-4.251 4.251a.743.743 0 0 1-1.057 0z" class="cls-21" data-name="Icon awesome-angle-down" transform="translate(182.003 692.604)"/></g></g></g></g></svg>