<svg xmlns="http://www.w3.org/2000/svg" id="artboard-svg" width="14" height="13" viewBox="0 0 14 13"><defs><style>.cls-1 { clip-path: url(#clip-iPhone_X_XS_1); } .cls-10, .cls-11, .cls-18, .cls-19, .cls-2, .cls-20, .cls-8, .cls-9 { fill: #0d47a1; } .cls-3, .cls-4, .cls-6 { fill: #eee; } .cls-10, .cls-18, .cls-19, .cls-3, .cls-6 { font-size: 13px; } .cls-11, .cls-14, .cls-19, .cls-3 { font-family: Helvetica-Bold, Helvetica; font-weight: 700; } .cls-15, .cls-5 { fill: none; } .cls-5 { stroke: #eee; stroke-linecap: round; stroke-linejoin: round; stroke-width: 2px; } .cls-18, .cls-20, .cls-6, .cls-8, .cls-9 { font-family: Helvetica; } .cls-7 { fill: #fafafa; } .cls-8 { font-size: 15px; } .cls-11, .cls-9 { font-size: 20px; } .cls-10, .cls-13, .cls-16 { font-family: Helvetica-Light, Helvetica; font-weight: 300; } .cls-12, .cls-13, .cls-16 { fill: #9e9e9e; } .cls-13, .cls-20 { font-size: 10px; } .cls-15 { stroke: #9e9e9e; } .cls-16 { font-size: 7px; } .cls-17 { fill: #1976d2; } .cls-21 { fill: #2196f3; } .cls-22 { fill: #fff; } .cls-23 { filter: url(#Rectangle_3); }</style><filter id="Rectangle_3" width="324" height="190" x="27" y="197" filterUnits="userSpaceOnUse"><feOffset dy="3"/><feGaussianBlur result="blur" stdDeviation="3"/><feFlood flood-opacity=".161"/><feComposite in2="blur" operator="in"/><feComposite in="SourceGraphic"/></filter><clipPath id="clip-iPhone_X_XS_1"><path d="M0 0h375v812H0z"/></clipPath></defs><g transform="translate(-249 -174)"><g id="iPhone_X_XS_1" class="cls-1" data-name="iPhone X/XS – 1"><g id="Group_30" data-name="Group 30" transform="translate(0 14)"><g id="Group_22" data-name="Group 22" transform="translate(-525.873 -583.279)"><path id="Icon_awesome-comment" d="M5.252 2.25C2.351 2.25 0 4.16 0 6.517A3.788 3.788 0 0 0 1.169 9.2a5.219 5.219 0 0 1-1.124 1.964.163.163 0 0 0-.031.178.161.161 0 0 0 .15.1 4.692 4.692 0 0 0 2.885-1.055 6.257 6.257 0 0 0 2.2.4c2.9 0 5.252-1.91 5.252-4.267S8.153 2.25 5.252 2.25z" class="cls-15" data-name="Icon awesome-comment" transform="translate(775.021 741.03)"/></g></g></g></g></svg>